<svg xmlns="http://www.w3.org/2000/svg" xmlns:xlink="http://www.w3.org/1999/xlink">
<symbol id="fb" viewBox="0 0 11 21">
    <g fill="none">
        <path d="M8.76759 4.10478H10.5842V0.940901C10.2708 0.897787 9.19293 0.800781 7.93765 0.800781C5.3185 0.800781 3.52431 2.44822 3.52431 5.47613V8.26276H0.634033V11.7997H3.52431V20.6994H7.06792V11.8006H9.84129L10.2815 8.26359H7.06709V5.82684C7.06792 4.80455 7.34318 4.10478 8.76759 4.10478Z" fill="currentColor"/>
    </g>
</symbol>
<symbol id="insta" viewBox="0 0 19 18">
    <g fill="none">
        <path d="M18.2023 5.19092C18.1618 4.27291 18.0134 3.64178 17.8007 3.0949C17.5813 2.51441 17.2438 1.99469 16.8016 1.56264C16.3696 1.12387 15.8464 0.782929 15.2726 0.566973C14.7226 0.354312 14.0948 0.205859 13.1767 0.165383C12.2519 0.12148 11.9583 0.111328 9.61254 0.111328C7.26681 0.111328 6.9732 0.12148 6.05176 0.161955C5.13375 0.202431 4.50262 0.351016 3.95588 0.563545C3.37525 0.782929 2.85553 1.12044 2.42348 1.56264C1.98471 1.99469 1.6439 2.51783 1.42781 3.09161C1.21515 3.64178 1.0667 4.26948 1.02622 5.18749C0.98232 6.11236 0.972168 6.40597 0.972168 8.7517C0.972168 11.0974 0.98232 11.391 1.0228 12.3125C1.06327 13.2305 1.21186 13.8616 1.42452 14.4085C1.6439 14.989 1.98471 15.5087 2.42348 15.9408C2.85553 16.3795 3.37867 16.7205 3.95245 16.9364C4.50262 17.1491 5.13032 17.2975 6.04847 17.338C6.96978 17.3786 7.26352 17.3886 9.60925 17.3886C11.955 17.3886 12.2486 17.3786 13.17 17.338C14.088 17.2975 14.7192 17.1491 15.2659 16.9364C16.427 16.4875 17.3451 15.5695 17.794 14.4085C18.0065 13.8583 18.1551 13.2305 18.1956 12.3125C18.236 11.391 18.2462 11.0974 18.2462 8.7517C18.2462 6.40597 18.2428 6.11236 18.2023 5.19092ZM16.6464 12.245C16.6092 13.0888 16.4675 13.5444 16.3494 13.8482C16.0591 14.6009 15.4617 15.1982 14.709 15.4885C14.4052 15.6067 13.9463 15.7484 13.1058 15.7855C12.1945 15.8261 11.9212 15.8361 9.61597 15.8361C7.31072 15.8361 7.03398 15.8261 6.12599 15.7855C5.2822 15.7484 4.82656 15.6067 4.52279 15.4885C4.14823 15.3501 3.80729 15.1307 3.53055 14.8438C3.24367 14.5637 3.02428 14.2262 2.88585 13.8516C2.76772 13.5478 2.62599 13.0888 2.58894 12.2484C2.54833 11.3371 2.53831 11.0637 2.53831 8.75843C2.53831 6.45317 2.54833 6.17644 2.58894 5.26858C2.62599 4.42479 2.76772 3.96915 2.88585 3.66538C3.02428 3.29069 3.24367 2.94988 3.53398 2.67301C3.81401 2.38612 4.15153 2.16674 4.52622 2.02844C4.82999 1.91031 5.28906 1.76858 6.12942 1.7314C7.04071 1.69092 7.31415 1.68077 9.61927 1.68077C11.9279 1.68077 12.2013 1.69092 13.1092 1.7314C13.953 1.76858 14.4087 1.91031 14.7124 2.02844C15.087 2.16674 15.4279 2.38612 15.7047 2.67301C15.9916 2.95317 16.211 3.29069 16.3494 3.66538C16.4675 3.96915 16.6092 4.42809 16.6464 5.26858C16.6869 6.17987 16.6971 6.45317 16.6971 8.75843C16.6971 11.0637 16.6869 11.3337 16.6464 12.245Z" fill="currentColor"/>
        <path d="M9.61263 4.31348C7.16236 4.31348 5.17432 6.30138 5.17432 8.75179C5.17432 11.2022 7.16236 13.1901 9.61263 13.1901C12.063 13.1901 14.051 11.2022 14.051 8.75179C14.051 6.30138 12.063 4.31348 9.61263 4.31348ZM9.61263 11.6308C8.02302 11.6308 6.73361 10.3415 6.73361 8.75179C6.73361 7.16205 8.02302 5.87277 9.61263 5.87277C11.2024 5.87277 12.4917 7.16205 12.4917 8.75179C12.4917 10.3415 11.2024 11.6308 9.61263 11.6308Z" fill="currentColor"/>
        <path d="M15.2626 4.13771C15.2626 4.7099 14.7987 5.17385 14.2263 5.17385C13.6541 5.17385 13.1902 4.7099 13.1902 4.13771C13.1902 3.56538 13.6541 3.10156 14.2263 3.10156C14.7987 3.10156 15.2626 3.56538 15.2626 4.13771Z" fill="currentColor"/>
    </g>
</symbol>
<symbol id="twitter" viewBox="0 0 18 15">
    <g fill="none">
        <path d="M17.7059 2.41939C17.0665 2.69986 16.3852 2.88576 15.6749 2.97602C16.4056 2.53975 16.9634 1.85417 17.2255 1.02782C16.5443 1.43401 15.7921 1.72092 14.9904 1.88103C14.3435 1.19223 13.4216 0.765625 12.4158 0.765625C10.4643 0.765625 8.8933 2.34955 8.8933 4.2913C8.8933 4.57069 8.91694 4.83933 8.97497 5.09508C6.0446 4.95217 3.45166 3.5477 1.70977 1.40822C1.40567 1.93584 1.22729 2.53975 1.22729 3.18986C1.22729 4.41058 1.85591 5.49268 2.79294 6.11915C2.22664 6.10841 1.67109 5.944 1.20042 5.68502C1.20042 5.69577 1.20042 5.70974 1.20042 5.72371C1.20042 7.43658 2.42221 8.85932 4.0244 9.18706C3.73749 9.2655 3.42479 9.30311 3.10027 9.30311C2.87461 9.30311 2.6468 9.29022 2.43296 9.24294C2.88965 10.6388 4.18559 11.665 5.72653 11.6983C4.5273 12.6364 3.00463 13.2017 1.35624 13.2017C1.06718 13.2017 0.789935 13.1888 0.512695 13.1533C2.07405 14.1602 3.92447 14.7351 5.91995 14.7351C12.4061 14.7351 15.9522 9.36222 15.9522 4.70501C15.9522 4.5492 15.9468 4.39876 15.9393 4.24939C16.6388 3.75294 17.2266 3.13291 17.7059 2.41939Z" fill="currentColor"/>
    </g>
</symbol>
<symbol id="youtube" viewBox="0 0 20 15">
    <g fill="none">
        <path d="M10.1084 14.5023C10.1068 14.5023 10.1051 14.5023 10.1034 14.5023C9.5395 14.4984 4.55458 14.4529 3.14225 14.071C2.15522 13.8057 1.37606 13.0274 1.11002 12.0402C0.740466 10.6528 0.763991 7.9817 0.766557 7.76841C0.764133 7.55612 0.740324 4.86291 1.10887 3.46413C1.1093 3.46285 1.10959 3.46142 1.11002 3.46014C1.37306 2.48423 2.16976 1.68183 3.13983 1.41579C3.14225 1.41507 3.14482 1.4145 3.14724 1.41379C4.5436 1.04681 9.53836 1.0019 10.1034 0.998047H10.1135C10.6788 1.0019 15.677 1.04738 17.0763 1.4299C18.0608 1.69452 18.8394 2.47182 19.1061 3.45772C19.4895 4.8575 19.454 7.55654 19.4502 7.78438C19.4529 8.00879 19.4753 10.6559 19.1079 12.0503C19.1076 12.0517 19.1071 12.053 19.1069 12.0543C18.8407 13.0415 18.0617 13.8198 17.0735 14.0854C17.0722 14.0858 17.0708 14.0861 17.0695 14.0865C15.6733 14.4534 10.6784 14.4983 10.1135 14.5023C10.1118 14.5023 10.1101 14.5023 10.1084 14.5023ZM2.52006 3.83853C2.19557 5.07321 2.22622 7.73205 2.2265 7.75886V7.7781C2.21681 8.51549 2.25088 10.6509 2.5202 11.6624C2.6508 12.1467 3.03503 12.5303 3.52235 12.6614C4.56441 12.9432 8.62446 13.0319 10.1084 13.0423C11.5961 13.0319 15.6621 12.9457 16.6965 12.6751C17.1823 12.5436 17.5652 12.1612 17.6967 11.6763C17.9663 10.6501 18.0001 8.52504 17.9902 7.79236C17.9902 7.78466 17.9902 7.77696 17.9904 7.76926C18.0038 7.02304 17.9774 4.86263 17.6979 3.84309C17.6977 3.84209 17.6974 3.84109 17.6972 3.8401C17.5661 3.35364 17.1817 2.96997 16.6944 2.83895C15.6624 2.5568 11.5958 2.4684 10.1084 2.45799C8.62161 2.4684 4.55957 2.55452 3.52206 2.82483C3.04402 2.95743 2.65109 3.35478 2.52006 3.83853ZM18.402 11.8644H18.4024H18.402ZM8.24764 10.7064V4.79377L13.3575 7.75016L8.24764 10.7064Z" fill="currentColor"/>
    </g>
</symbol>
</svg>